<svg width="138" height="28" viewBox="0 0 138 28" fill="none" xmlns="http://www.w3.org/2000/svg">
<g clip-path="url(#clip0_1_2)">
<path d="M27.332 26V3.56H36.172C38.8693 3.56 40.8413 4.104 42.088 5.192C43.3347 6.28 43.958 7.78733 43.958 9.714C43.958 10.8927 43.618 11.9467 42.938 12.876C42.258 13.7827 41.2607 14.3607 39.946 14.61V14.644C41.3967 14.8707 42.5187 15.4713 43.312 16.446C44.128 17.398 44.536 18.5087 44.536 19.778C44.536 21.7047 43.8333 23.2233 42.428 24.334C41.0227 25.4447 38.9827 26 36.308 26H27.332ZM30.902 22.974H36.478C37.906 22.974 38.9713 22.6793 39.674 22.09C40.3993 21.5007 40.762 20.6733 40.762 19.608C40.762 18.5427 40.3993 17.7153 39.674 17.126C38.9713 16.5367 37.906 16.242 36.478 16.242H30.902V22.974ZM30.902 13.216H35.9C38.756 13.216 40.184 12.1167 40.184 9.918C40.184 7.71933 38.756 6.62 35.9 6.62H30.902V13.216ZM55.3517 8.66C57.0064 8.66 58.4684 9.01133 59.7377 9.714C61.0071 10.4167 61.9931 11.4367 62.6957 12.774C63.4211 14.0887 63.7837 15.664 63.7837 17.5C63.7837 19.336 63.4211 20.9227 62.6957 22.26C61.9931 23.5747 61.0071 24.5833 59.7377 25.286C58.4684 25.9887 57.0064 26.34 55.3517 26.34C53.6971 26.34 52.2351 25.9887 50.9657 25.286C49.6964 24.5833 48.6991 23.5747 47.9737 22.26C47.2484 20.9227 46.8857 19.336 46.8857 17.5C46.8857 15.664 47.2484 14.0887 47.9737 12.774C48.6991 11.4367 49.6964 10.4167 50.9657 9.714C52.2351 9.01133 53.6971 8.66 55.3517 8.66ZM55.3517 11.516C54.3317 11.516 53.4591 11.754 52.7337 12.23C52.0311 12.6833 51.4871 13.352 51.1017 14.236C50.7164 15.12 50.5237 16.208 50.5237 17.5C50.5237 18.7693 50.7164 19.8573 51.1017 20.764C51.4871 21.648 52.0311 22.328 52.7337 22.804C53.4591 23.2573 54.3317 23.484 55.3517 23.484C56.3717 23.484 57.2331 23.2573 57.9357 22.804C58.6384 22.328 59.1824 21.648 59.5677 20.764C59.9531 19.8573 60.1457 18.7693 60.1457 17.5C60.1457 16.208 59.9531 15.12 59.5677 14.236C59.1824 13.352 58.6384 12.6833 57.9357 12.23C57.2331 11.754 56.3717 11.516 55.3517 11.516ZM74.3784 8.66C76.0331 8.66 77.4951 9.01133 78.7644 9.714C80.0338 10.4167 81.0198 11.4367 81.7224 12.774C82.4478 14.0887 82.8104 15.664 82.8104 17.5C82.8104 19.336 82.4478 20.9227 81.7224 22.26C81.0198 23.5747 80.0338 24.5833 78.7644 25.286C77.4951 25.9887 76.0331 26.34 74.3784 26.34C72.7238 26.34 71.2618 25.9887 69.9924 25.286C68.7231 24.5833 67.7258 23.5747 67.0004 22.26C66.2751 20.9227 65.9124 19.336 65.9124 17.5C65.9124 15.664 66.2751 14.0887 67.0004 12.774C67.7258 11.4367 68.7231 10.4167 69.9924 9.714C71.2618 9.01133 72.7238 8.66 74.3784 8.66ZM74.3784 11.516C73.3584 11.516 72.4858 11.754 71.7604 12.23C71.0578 12.6833 70.5138 13.352 70.1284 14.236C69.7431 15.12 69.5504 16.208 69.5504 17.5C69.5504 18.7693 69.7431 19.8573 70.1284 20.764C70.5138 21.648 71.0578 22.328 71.7604 22.804C72.4858 23.2573 73.3584 23.484 74.3784 23.484C75.3984 23.484 76.2598 23.2573 76.9624 22.804C77.6651 22.328 78.2091 21.648 78.5944 20.764C78.9798 19.8573 79.1724 18.7693 79.1724 17.5C79.1724 16.208 78.9798 15.12 78.5944 14.236C78.2091 13.352 77.6651 12.6833 76.9624 12.23C76.2598 11.754 75.3984 11.516 74.3784 11.516ZM102.075 9L94.4932 16.752L93.7112 17.296L88.3732 22.838L88.3392 18.69L97.7572 9H102.075ZM89.6652 1.35V26H86.0272V1.35H89.6652ZM94.9352 14.712L102.483 26H98.2672L92.2152 16.786L94.9352 14.712ZM111.272 26.34C109.572 26.34 108.076 25.9887 106.784 25.286C105.492 24.5833 104.483 23.5747 103.758 22.26C103.055 20.9227 102.704 19.336 102.704 17.5C102.704 15.664 103.055 14.0887 103.758 12.774C104.483 11.4367 105.481 10.4167 106.75 9.714C108.019 9.01133 109.459 8.66 111.068 8.66C112.723 8.66 114.128 9 115.284 9.68C116.44 10.36 117.324 11.2893 117.936 12.468C118.548 13.6467 118.854 14.984 118.854 16.48C118.854 16.888 118.843 17.2733 118.82 17.636C118.797 17.9987 118.763 18.316 118.718 18.588H105.05V15.8H117.12L115.318 16.344C115.318 14.8027 114.933 13.624 114.162 12.808C113.391 11.9693 112.337 11.55 111 11.55C110.025 11.55 109.175 11.7767 108.45 12.23C107.725 12.6833 107.169 13.3633 106.784 14.27C106.399 15.154 106.206 16.242 106.206 17.534C106.206 18.8033 106.41 19.88 106.818 20.764C107.226 21.648 107.804 22.3167 108.552 22.77C109.3 23.2233 110.184 23.45 111.204 23.45C112.337 23.45 113.255 23.2347 113.958 22.804C114.661 22.3733 115.216 21.7727 115.624 21.002L118.514 22.362C118.106 23.178 117.551 23.892 116.848 24.504C116.168 25.0933 115.352 25.5467 114.4 25.864C113.448 26.1813 112.405 26.34 111.272 26.34ZM122.088 26V9H125.318L125.556 13.42L125.08 12.944C125.398 11.9693 125.851 11.1647 126.44 10.53C127.052 9.87267 127.766 9.39667 128.582 9.102C129.421 8.80733 130.305 8.66 131.234 8.66C132.436 8.66 133.512 8.898 134.464 9.374C135.439 9.82733 136.21 10.5187 136.776 11.448C137.343 12.3773 137.626 13.556 137.626 14.984V26H133.988V16.106C133.988 14.4287 133.637 13.2727 132.934 12.638C132.254 11.9807 131.393 11.652 130.35 11.652C129.602 11.652 128.877 11.8333 128.174 12.196C127.472 12.536 126.882 13.0913 126.406 13.862C125.953 14.6327 125.726 15.664 125.726 16.956V26H122.088Z" fill="white"/>
<path d="M21 0H1C0.446875 0 0 0.446875 0 1V27C0 27.5531 0.446875 28 1 28H21C21.5531 28 22 27.5531 22 27V1C22 0.446875 21.5531 0 21 0ZM15.875 8.80937L14.4219 7.75L12.875 8.85625V1.875H15.875V8.80937Z" fill="white"/>
</g>
<defs>
<clipPath id="clip0_1_2">
<rect width="138" height="28" fill="white"/>
</clipPath>
</defs>
</svg>
